HIERARCHY
ROOT mixamorig:Hips
{
	OFFSET -0.000008 104.274872 1.554316
	CHANNELS 6 Xposition Yposition Zposition Xrotation Yrotation Zrotation
	JOINT mixamorig:Spine
	{
		OFFSET -0.000005 10.181595 0.131519
		CHANNELS 6 Xposition Yposition Zposition Xrotation Yrotation Zrotation
		JOINT mixamorig:Spine1
		{
			OFFSET -0.000000 9.893959 -1.470707
			CHANNELS 6 Xposition Yposition Zposition Xrotation Yrotation Zrotation
			JOINT mixamorig:Spine2
			{
				OFFSET -0.000000 9.220757 -1.370641
				CHANNELS 6 Xposition Yposition Zposition Xrotation Yrotation Zrotation
				JOINT mixamorig:Neck
				{
					OFFSET 0.000001 16.740417 -2.049036
					CHANNELS 6 Xposition Yposition Zposition Xrotation Yrotation Zrotation
					JOINT mixamorig:Head
					{
						OFFSET 0.000000 9.617874 1.685006
						CHANNELS 6 Xposition Yposition Zposition Xrotation Yrotation Zrotation
						JOINT mixamorig:HeadTop_End
						{
							OFFSET 0.000002 22.037354 7.501101
							CHANNELS 6 Xposition Yposition Zposition Xrotation Yrotation Zrotation
							End Site
							{
								OFFSET 0.000168 2310.654297 -282.823242
							}
						}
					}
				}
				JOINT mixamorig:RightShoulder
				{
					OFFSET -4.569970 11.014908 -2.160885
					CHANNELS 6 Xposition Yposition Zposition Xrotation Yrotation Zrotation
					JOINT mixamorig:RightArm
					{
						OFFSET -10.592851 -0.524811 -2.232101
						CHANNELS 6 Xposition Yposition Zposition Xrotation Yrotation Zrotation
						JOINT mixamorig:RightForeArm
						{
							OFFSET -27.841511 0.000031 -0.000004
							CHANNELS 6 Xposition Yposition Zposition Xrotation Yrotation Zrotation
							JOINT mixamorig:RightHand
							{
								OFFSET -28.328831 -0.000015 0.000015
								CHANNELS 6 Xposition Yposition Zposition Xrotation Yrotation Zrotation
								JOINT mixamorig:RightHandThumb1
								{
									OFFSET -2.464806 -1.573990 2.681852
									CHANNELS 6 Xposition Yposition Zposition Xrotation Yrotation Zrotation
									JOINT mixamorig:RightHandThumb2
									{
										OFFSET -3.215179 -1.872803 1.924282
										CHANNELS 6 Xposition Yposition Zposition Xrotation Yrotation Zrotation
										JOINT mixamorig:RightHandThumb3
										{
											OFFSET -2.654831 -1.527969 1.512609
											CHANNELS 6 Xposition Yposition Zposition Xrotation Yrotation Zrotation
											JOINT mixamorig:RightHandThumb4
											{
												OFFSET -2.018814 -1.152008 1.108052
												CHANNELS 6 Xposition Yposition Zposition Xrotation Yrotation Zrotation
												End Site
												{
													OFFSET -188.809540 -114.533607 132.431396
												}
											}
										}
									}
								}
								JOINT mixamorig:RightHandIndex1
								{
									OFFSET -9.108284 -0.517868 2.259835
									CHANNELS 6 Xposition Yposition Zposition Xrotation Yrotation Zrotation
									JOINT mixamorig:RightHandIndex2
									{
										OFFSET -3.699989 0.000000 0.001215
										CHANNELS 6 Xposition Yposition Zposition Xrotation Yrotation Zrotation
										JOINT mixamorig:RightHandIndex3
										{
											OFFSET -2.850006 0.000031 -0.000522
											CHANNELS 6 Xposition Yposition Zposition Xrotation Yrotation Zrotation
											JOINT mixamorig:RightHandIndex4
											{
												OFFSET -2.772186 -0.000015 -0.000020
												CHANNELS 6 Xposition Yposition Zposition Xrotation Yrotation Zrotation
												End Site
												{
													OFFSET -277.218445 0.000000 -0.050231
												}
											}
										}
									}
								}
								JOINT mixamorig:RightHandMiddle1
								{
									OFFSET -9.532516 -0.000031 -0.000023
									CHANNELS 6 Xposition Yposition Zposition Xrotation Yrotation Zrotation
									JOINT mixamorig:RightHandMiddle2
									{
										OFFSET -3.700005 -0.000015 0.003713
										CHANNELS 6 Xposition Yposition Zposition Xrotation Yrotation Zrotation
										JOINT mixamorig:RightHandMiddle3
										{
											OFFSET -2.949974 0.000015 -0.002054
											CHANNELS 6 Xposition Yposition Zposition Xrotation Yrotation Zrotation
											JOINT mixamorig:RightHandMiddle4
											{
												OFFSET -2.946640 0.000000 -0.000156
												CHANNELS 6 Xposition Yposition Zposition Xrotation Yrotation Zrotation
												End Site
												{
													OFFSET -294.664337 0.000000 -0.113670
												}
											}
										}
									}
								}
								JOINT mixamorig:RightHandRing1
								{
									OFFSET -9.103600 -0.043076 -1.865134
									CHANNELS 6 Xposition Yposition Zposition Xrotation Yrotation Zrotation
									JOINT mixamorig:RightHandRing2
									{
										OFFSET -3.379288 0.000000 -0.001055
										CHANNELS 6 Xposition Yposition Zposition Xrotation Yrotation Zrotation
										JOINT mixamorig:RightHandRing3
										{
											OFFSET -2.889687 -0.000015 0.000379
											CHANNELS 6 Xposition Yposition Zposition Xrotation Yrotation Zrotation
											JOINT mixamorig:RightHandRing4
											{
												OFFSET -2.638809 -0.000015 0.000941
												CHANNELS 6 Xposition Yposition Zposition Xrotation Yrotation Zrotation
												End Site
												{
													OFFSET -263.880371 0.000000 0.516020
												}
											}
										}
									}
								}
								JOINT mixamorig:RightHandPinky1
								{
									OFFSET -8.076683 -0.486710 -3.806280
									CHANNELS 6 Xposition Yposition Zposition Xrotation Yrotation Zrotation
									JOINT mixamorig:RightHandPinky2
									{
										OFFSET -3.600014 -0.000015 -0.003747
										CHANNELS 6 Xposition Yposition Zposition Xrotation Yrotation Zrotation
										JOINT mixamorig:RightHandPinky3
										{
											OFFSET -2.099983 0.000000 -0.005739
											CHANNELS 6 Xposition Yposition Zposition Xrotation Yrotation Zrotation
											JOINT mixamorig:RightHandPinky4
											{
												OFFSET -2.115768 -0.000031 -0.003680
												CHANNELS 6 Xposition Yposition Zposition Xrotation Yrotation Zrotation
												End Site
												{
													OFFSET -211.577087 0.000000 -0.350686
												}
											}
										}
									}
								}
							}
						}
					}
				}
				JOINT mixamorig:LeftShoulder
				{
					OFFSET 4.570447 11.014725 -2.160855
					CHANNELS 6 Xposition Yposition Zposition Xrotation Yrotation Zrotation
					JOINT mixamorig:LeftArm
					{
						OFFSET 10.592371 -0.524597 -2.232119
						CHANNELS 6 Xposition Yposition Zposition Xrotation Yrotation Zrotation
						JOINT mixamorig:LeftForeArm
						{
							OFFSET 27.841532 -0.000031 0.000026
							CHANNELS 6 Xposition Yposition Zposition Xrotation Yrotation Zrotation
							JOINT mixamorig:LeftHand
							{
								OFFSET 28.328846 -0.000061 0.000022
								CHANNELS 6 Xposition Yposition Zposition Xrotation Yrotation Zrotation
								JOINT mixamorig:LeftHandThumb1
								{
									OFFSET 2.466141 -1.576172 2.681732
									CHANNELS 6 Xposition Yposition Zposition Xrotation Yrotation Zrotation
									JOINT mixamorig:LeftHandThumb2
									{
										OFFSET 3.217812 -1.872070 1.916482
										CHANNELS 6 Xposition Yposition Zposition Xrotation Yrotation Zrotation
										JOINT mixamorig:LeftHandThumb3
										{
											OFFSET 2.656029 -1.528778 1.514513
											CHANNELS 6 Xposition Yposition Zposition Xrotation Yrotation Zrotation
											JOINT mixamorig:LeftHandThumb4
											{
												OFFSET 2.020889 -1.154053 1.115139
												CHANNELS 6 Xposition Yposition Zposition Xrotation Yrotation Zrotation
												End Site
												{
													OFFSET 190.885437 -115.081749 130.048782
												}
											}
										}
									}
								}
								JOINT mixamorig:LeftHandIndex1
								{
									OFFSET 9.109314 -0.518021 2.259871
									CHANNELS 6 Xposition Yposition Zposition Xrotation Yrotation Zrotation
									JOINT mixamorig:LeftHandIndex2
									{
										OFFSET 3.699989 0.000000 -0.000322
										CHANNELS 6 Xposition Yposition Zposition Xrotation Yrotation Zrotation
										JOINT mixamorig:LeftHandIndex3
										{
											OFFSET 2.850006 0.000000 0.000352
											CHANNELS 6 Xposition Yposition Zposition Xrotation Yrotation Zrotation
											JOINT mixamorig:LeftHandIndex4
											{
												OFFSET 2.774864 -0.000031 -0.000027
												CHANNELS 6 Xposition Yposition Zposition Xrotation Yrotation Zrotation
												End Site
												{
													OFFSET 277.486267 0.000000 -0.009857
												}
											}
										}
									}
								}
								JOINT mixamorig:LeftHandMiddle1
								{
									OFFSET 9.533394 0.000061 0.000044
									CHANNELS 6 Xposition Yposition Zposition Xrotation Yrotation Zrotation
									JOINT mixamorig:LeftHandMiddle2
									{
										OFFSET 3.699989 -0.000015 -0.000231
										CHANNELS 6 Xposition Yposition Zposition Xrotation Yrotation Zrotation
										JOINT mixamorig:LeftHandMiddle3
										{
											OFFSET 2.949997 -0.000015 -0.000059
											CHANNELS 6 Xposition Yposition Zposition Xrotation Yrotation Zrotation
											JOINT mixamorig:LeftHandMiddle4
											{
												OFFSET 2.952896 0.000031 0.000063
												CHANNELS 6 Xposition Yposition Zposition Xrotation Yrotation Zrotation
												End Site
												{
													OFFSET 295.289337 0.000000 0.022810
												}
											}
										}
									}
								}
								JOINT mixamorig:LeftHandRing1
								{
									OFFSET 9.104523 -0.042999 -1.865074
									CHANNELS 6 Xposition Yposition Zposition Xrotation Yrotation Zrotation
									JOINT mixamorig:LeftHandRing2
									{
										OFFSET 3.150009 -0.000031 0.000043
										CHANNELS 6 Xposition Yposition Zposition Xrotation Yrotation Zrotation
										JOINT mixamorig:LeftHandRing3
										{
											OFFSET 2.949982 -0.000015 0.000040
											CHANNELS 6 Xposition Yposition Zposition Xrotation Yrotation Zrotation
											JOINT mixamorig:LeftHandRing4
											{
												OFFSET 2.644348 0.000000 0.000057
												CHANNELS 6 Xposition Yposition Zposition Xrotation Yrotation Zrotation
												End Site
												{
													OFFSET 264.434631 0.000000 0.012105
												}
											}
										}
									}
								}
								JOINT mixamorig:LeftHandPinky1
								{
									OFFSET 8.077789 -0.486847 -3.806259
									CHANNELS 6 Xposition Yposition Zposition Xrotation Yrotation Zrotation
									JOINT mixamorig:LeftHandPinky2
									{
										OFFSET 3.599953 0.000031 0.014727
										CHANNELS 6 Xposition Yposition Zposition Xrotation Yrotation Zrotation
										JOINT mixamorig:LeftHandPinky3
										{
											OFFSET 2.100021 0.000015 0.007705
											CHANNELS 6 Xposition Yposition Zposition Xrotation Yrotation Zrotation
											JOINT mixamorig:LeftHandPinky4
											{
												OFFSET 2.125504 0.000031 0.007517
												CHANNELS 6 Xposition Yposition Zposition Xrotation Yrotation Zrotation
												End Site
												{
													OFFSET 212.550781 0.000000 0.625752
												}
											}
										}
									}
								}
							}
						}
					}
				}
			}
		}
	}
	JOINT mixamorig:RightUpLeg
	{
		OFFSET -8.207787 -6.751648 -1.599560
		CHANNELS 6 Xposition Yposition Zposition Xrotation Yrotation Zrotation
		JOINT mixamorig:RightLeg
		{
			OFFSET -0.000002 -44.370117 0.345942
			CHANNELS 6 Xposition Yposition Zposition Xrotation Yrotation Zrotation
			JOINT mixamorig:RightFoot
			{
				OFFSET 0.000003 -44.423679 -3.043532
				CHANNELS 6 Xposition Yposition Zposition Xrotation Yrotation Zrotation
				JOINT mixamorig:RightToeBase
				{
					OFFSET -0.000002 -8.728671 10.710558
					CHANNELS 6 Xposition Yposition Zposition Xrotation Yrotation Zrotation
					JOINT mixamorig:RightToe_End
					{
						OFFSET -0.000001 -0.000679 9.278119
						CHANNELS 6 Xposition Yposition Zposition Xrotation Yrotation Zrotation
						End Site
						{
							OFFSET 0.000000 -0.067690 927.812134
						}
					}
				}
			}
		}
	}
	JOINT mixamorig:LeftUpLeg
	{
		OFFSET 8.207793 -6.751686 -1.599556
		CHANNELS 6 Xposition Yposition Zposition Xrotation Yrotation Zrotation
		JOINT mixamorig:LeftLeg
		{
			OFFSET -0.000004 -44.370014 0.346954
			CHANNELS 6 Xposition Yposition Zposition Xrotation Yrotation Zrotation
			JOINT mixamorig:LeftFoot
			{
				OFFSET -0.000001 -44.423672 -3.044401
				CHANNELS 6 Xposition Yposition Zposition Xrotation Yrotation Zrotation
				JOINT mixamorig:LeftToeBase
				{
					OFFSET -0.000002 -8.728669 10.710558
					CHANNELS 6 Xposition Yposition Zposition Xrotation Yrotation Zrotation
					JOINT mixamorig:LeftToe_End
					{
						OFFSET -0.000003 -0.000679 9.278133
						CHANNELS 6 Xposition Yposition Zposition Xrotation Yrotation Zrotation
						End Site
						{
							OFFSET 0.000000 -0.068021 927.813477
						}
					}
				}
			}
		}
	}
}
MOTION
Frames: 3
Frame Time: 0.033333
0.000006 104.270477 1.554256 0.000010 0.000003 -0.000113 -0.000005 10.181587 0.131522 0.000001 -0.000003 0.000084 -0.000000 9.893967 -1.470711 0.000001 0.000000 -0.000000 -0.000000 9.220802 -1.370642 0.000000 -0.000000 -0.000000 0.000001 16.740433 -2.049030 0.000000 -0.000000 -0.000000 0.000000 9.617859 1.685014 0.000000 0.000000 0.000000 0.000002 22.037384 7.501101 0.000000 -0.000000 0.000000 -4.569968 11.014880 -2.160881 0.000008 0.000001 -0.000038 -10.592879 -0.524748 -2.231943 72.787161 24.562730 -18.232034 -27.841507 0.000024 0.000551 -49.992289 111.424503 68.726654 -28.328827 0.000006 0.000021 -0.000325 -0.000043 0.000006 -2.464443 -1.573754 2.682301 -48.991256 -164.478755 -12.800306 -3.215268 -1.872531 1.924624 150.933766 32.216059 11.761071 -2.654956 -1.527878 1.513082 144.331514 27.560061 -35.655640 -2.018827 -1.152015 1.108062 -0.000005 -0.000003 0.000002 -9.108413 -0.517564 2.260059 88.023721 17.521401 -16.981689 -3.700053 0.000311 0.001452 85.946613 13.495021 -12.558207 -2.850067 0.000360 -0.000307 84.203228 10.706043 -9.678523 -2.772189 -0.000015 -0.000021 0.000002 0.000000 -0.000002 -9.532608 0.000274 0.000181 83.889797 14.188285 -12.889109 -3.700063 0.000333 0.003919 85.939052 8.717521 -8.037867 -2.950037 0.000343 -0.001851 87.397250 10.516330 -10.044882 -2.946623 0.000000 -0.000157 0.000003 0.000000 0.000002 -9.103717 -0.042754 -1.864899 87.698249 15.462461 -14.818094 -3.379275 0.000336 -0.000865 85.736018 4.204253 -3.917656 -2.889715 0.000365 0.000598 91.178668 3.508170 -3.625261 -2.638805 -0.000000 0.000939 -0.000001 -0.000000 -0.000002 -8.076773 -0.486374 -3.806030 88.561326 14.966654 -14.455525 -3.600018 0.000298 -0.003523 90.926846 2.725209 -2.437431 -2.099987 0.000332 -0.005503 90.613531 1.177161 -0.982844 -2.115777 -0.000051 -0.003681 -0.000004 0.000001 -0.000003 4.570446 11.014691 -2.160851 -0.000018 0.000010 -0.000021 10.592514 -0.524537 -2.232389 61.968250 -64.017198 41.147273 27.841713 -0.000074 -0.000083 68.342859 -106.959820 85.027297 28.328829 -0.000013 0.000036 0.000020 -0.000087 0.000001 2.466191 -1.576111 2.681904 65.337549 144.172275 -128.668606 3.217818 -1.871968 1.916545 97.938991 150.524624 -149.611728 2.656060 -1.528752 1.514628 290.463002 17.195782 22.126133 2.020898 -1.154085 1.115150 0.000004 0.000000 0.000003 9.109290 -0.517901 2.260112 -77.206457 -15.220491 -12.172096 3.699946 0.000094 -0.000069 -73.811949 -20.828843 -15.723469 2.849973 0.000126 0.000586 -70.771114 -16.428365 -11.707967 2.774887 -0.000044 -0.000041 -0.000001 0.000001 0.000003 9.533379 0.000140 0.000264 -74.643053 -10.835724 -8.267047 3.699963 0.000124 0.000003 -74.391716 -15.476514 -11.774714 2.949982 0.000108 0.000166 105.760589 -167.035445 170.168685 2.952880 -0.000031 0.000062 -0.000000 0.000000 0.000003 9.104518 -0.042911 -1.864852 -73.614631 -10.840893 -8.123787 3.149981 0.000157 0.000280 -76.261671 -9.646630 -7.580164 2.949965 0.000135 0.000285 -76.610182 -7.299904 -5.770111 2.644318 0.000029 0.000043 0.000002 0.000000 -0.000003 8.077773 -0.486779 -3.806054 -68.582988 -10.766410 -7.604980 3.599946 0.000137 0.014925 -71.573580 -3.106262 -2.525359 2.099998 0.000144 0.007914 -74.156443 -0.601541 -0.756565 2.125500 0.000001 0.007512 0.000000 0.000000 0.000002 -8.207786 -6.751667 -1.599560 -0.077001 -0.000003 0.000080 -0.000002 -44.370110 0.345938 0.153719 -0.000000 -0.000000 0.000000 -44.423679 -3.043532 -0.076700 0.000000 -0.000002 -0.000006 -8.728667 10.710559 -0.000009 -0.000000 -0.000000 -0.000001 -0.000679 9.278123 0.000000 -0.000000 -0.000000 8.207792 -6.751710 -1.599556 -0.074518 -0.000003 0.000081 -0.000002 -44.370014 0.346960 0.148822 0.000002 0.000000 -0.000001 -44.423664 -3.044403 -0.074314 0.000000 -0.000002 -0.000004 -8.728671 10.710558 0.000007 -0.000000 -0.000000 0.000000 -0.000680 9.278137 -0.000000 0.000000 -0.000001 
0.000006 104.270477 1.554256 0.000010 0.000003 -0.000113 -0.000005 10.181587 0.131522 0.000001 -0.000003 0.000084 -0.000000 9.893967 -1.470711 0.000001 0.000000 -0.000000 -0.000000 9.220802 -1.370642 0.000000 -0.000000 -0.000000 0.000001 16.740433 -2.049030 0.000000 -0.000000 -0.000000 0.000000 9.617859 1.685014 0.000000 0.000000 0.000000 0.000002 22.037384 7.501101 0.000000 -0.000000 0.000000 -4.569968 11.014880 -2.160881 0.000008 0.000001 -0.000038 -10.592879 -0.524736 -2.231935 72.744506 22.361389 -16.565458 -27.841511 0.000010 0.000542 -49.874793 110.591623 67.755449 -28.328829 0.000006 0.000020 -0.000320 -0.000045 0.000007 -2.464407 -1.573751 2.682312 -49.850409 -165.776655 -15.122088 -3.215276 -1.872550 1.924644 150.936157 32.227148 11.838869 -2.654959 -1.527848 1.513067 144.554656 27.528519 -35.524565 -2.018834 -1.152000 1.108054 -0.000001 -0.000001 0.000002 -9.108384 -0.517547 2.260061 87.340737 17.135941 -16.414309 -3.700078 0.000314 0.001471 85.459142 13.320279 -12.290662 -2.850072 0.000351 -0.000326 83.820375 10.614656 -9.531863 -2.772169 -0.000017 -0.000019 -0.000003 0.000001 -0.000001 -9.532598 0.000279 0.000185 83.562057 13.831139 -12.495222 -3.700047 0.000331 0.003920 85.283593 8.496401 -7.742897 -2.950052 0.000338 -0.001843 86.546461 10.435056 -9.820786 -2.946626 0.000002 -0.000156 0.000002 -0.000002 0.000001 -9.103711 -0.042745 -1.864896 87.175228 15.247361 -14.479788 -3.379300 0.000316 -0.000873 85.343118 4.266262 -3.948008 -2.889724 0.000362 0.000580 90.706592 3.588351 -3.676757 -2.638794 -0.000015 0.000938 -0.000001 -0.000003 0.000000 -8.076753 -0.486366 -3.806035 88.184511 14.769634 -14.170924 -3.600000 0.000306 -0.003529 90.236996 2.818491 -2.501438 -2.099983 0.000339 -0.005511 90.025411 1.263007 -1.058401 -2.115783 -0.000027 -0.003672 0.000004 -0.000000 -0.000006 4.570446 11.014691 -2.160851 -0.000018 0.000010 -0.000021 10.592512 -0.524536 -2.232390 61.711606 -63.560798 40.623766 27.841724 -0.000097 -0.000078 66.151168 -108.483703 84.253723 28.328831 -0.000029 0.000016 0.000023 -0.000088 0.000000 2.466201 -1.576078 2.681915 60.856658 145.225367 -126.158361 3.217845 -1.871991 1.916562 86.397501 148.246305 -142.563151 2.656066 -1.528730 1.514635 274.820475 20.465876 29.790167 2.020891 -1.154073 1.115157 0.000004 0.000008 0.000006 9.109265 -0.517871 2.260109 -87.297358 -17.654238 -16.846283 3.699923 0.000151 -0.000087 -90.526972 -25.506397 -25.740977 2.849944 0.000170 0.000586 -89.845811 -21.625682 -21.568324 2.774880 -0.000013 -0.000033 0.000004 0.000003 -0.000000 9.533369 0.000207 0.000298 -84.073406 -13.176737 -11.884656 3.699951 0.000141 0.000011 -83.255532 -17.358492 -15.450117 2.949971 0.000124 0.000177 99.880028 -165.029938 167.389468 2.952873 -0.000019 0.000047 -0.000001 -0.000000 -0.000000 9.104493 -0.042886 -1.864835 -81.079372 -11.745881 -10.056517 3.149971 0.000175 0.000282 -81.398445 -8.809687 -7.582308 2.949968 0.000108 0.000301 -77.731781 -6.808298 -5.490218 2.644324 0.000014 0.000062 0.000000 -0.000001 0.000001 8.077763 -0.486737 -3.806027 -75.622434 -10.366254 -8.344306 3.599956 0.000150 0.014981 -79.297458 -2.322106 -2.258613 2.099998 0.000146 0.007943 -79.670680 -0.345993 -0.623512 2.125500 -0.000013 0.007516 -0.000000 -0.000001 0.000001 -8.207786 -6.751667 -1.599560 -0.077001 -0.000003 0.000080 -0.000002 -44.370110 0.345938 0.153719 -0.000000 -0.000000 0.000000 -44.423679 -3.043532 -0.076700 0.000000 -0.000002 -0.000006 -8.728667 10.710559 -0.000009 -0.000000 -0.000000 -0.000001 -0.000679 9.278123 0.000000 -0.000000 -0.000000 8.207792 -6.751710 -1.599556 -0.074518 -0.000003 0.000081 -0.000002 -44.370014 0.346960 0.148822 0.000002 0.000000 -0.000001 -44.423664 -3.044403 -0.074314 0.000000 -0.000002 -0.000004 -8.728671 10.710558 0.000007 -0.000000 -0.000000 0.000000 -0.000680 9.278137 -0.000000 0.000000 -0.000001 
0.000006 104.270477 1.554256 0.000010 0.000003 -0.000113 -0.000005 10.181587 0.131522 0.000001 -0.000003 0.000084 -0.000000 9.893967 -1.470711 0.000001 0.000000 -0.000000 -0.000000 9.220802 -1.370642 0.000000 -0.000000 -0.000000 0.000001 16.740433 -2.049030 0.000000 -0.000000 -0.000000 0.000000 9.617859 1.685014 0.000000 0.000000 0.000000 0.000002 22.037384 7.501101 0.000000 -0.000000 0.000000 -4.569968 11.014880 -2.160881 0.000008 0.000001 -0.000038 -10.592880 -0.524708 -2.231985 72.734739 15.563742 -11.493224 -27.841522 0.000007 0.000558 -49.438361 111.134595 67.763283 -28.328806 0.000020 0.000028 -0.000321 -0.000045 0.000007 -2.464428 -1.573743 2.682314 -50.662908 -167.269379 -17.461174 -3.215273 -1.872559 1.924636 150.955104 32.389829 12.999287 -2.654977 -1.527868 1.513072 145.187268 27.410333 -35.544400 -2.018823 -1.152020 1.108053 -0.000003 -0.000004 0.000004 -9.108379 -0.517567 2.260057 87.102179 17.251550 -16.457148 -3.700078 0.000318 0.001454 85.550810 13.639573 -12.606179 -2.850076 0.000340 -0.000308 83.805923 10.870030 -9.758989 -2.772138 -0.000000 -0.000025 -0.000001 -0.000000 -0.000001 -9.532585 0.000270 0.000196 83.351811 14.137117 -12.723174 -3.700058 0.000321 0.003917 85.097853 8.673221 -7.880080 -2.950049 0.000330 -0.001848 86.086919 10.530227 -9.831517 -2.946624 0.000000 -0.000155 -0.000002 -0.000002 -0.000000 -9.103693 -0.042745 -1.864895 86.735999 15.636700 -14.738529 -3.379305 0.000316 -0.000864 85.278703 4.260448 -3.938206 -2.889727 0.000372 0.000582 90.134345 3.427523 -3.478933 -2.638811 -0.000031 0.000942 -0.000001 0.000001 0.000004 -8.076755 -0.486371 -3.806043 87.785136 15.003955 -14.298802 -3.600004 0.000305 -0.003554 90.433842 2.737043 -2.428418 -2.100001 0.000338 -0.005512 90.052936 1.031095 -0.827575 -2.115773 -0.000044 -0.003683 -0.000004 0.000004 -0.000005 4.570446 11.014691 -2.160851 -0.000018 0.000010 -0.000021 10.592513 -0.524537 -2.232389 60.375375 -63.663865 39.712923 27.841721 -0.000084 -0.000074 61.991138 -110.164558 81.430314 28.328829 -0.000015 0.000042 0.000019 -0.000089 0.000001 2.466175 -1.576125 2.681897 39.413368 134.967461 -102.880524 3.217808 -1.872004 1.916536 71.207522 135.795157 -127.498882 2.656054 -1.528761 1.514636 267.751748 31.639229 37.258948 2.020891 -1.154067 1.115144 -0.000001 0.000002 0.000002 9.109262 -0.517797 2.260116 -102.642082 -13.592432 -16.925554 3.699916 0.000202 -0.000103 -102.897046 -20.612061 -25.717653 2.849935 0.000218 0.000600 -101.590868 -17.721443 -21.638190 2.774870 -0.000045 -0.000014 -0.000001 0.000003 0.000001 9.533360 0.000257 0.000301 -100.781968 -10.680243 -12.882095 3.699941 0.000191 0.000023 -101.757743 -16.275444 -19.941856 2.949948 0.000221 0.000176 77.080201 -166.110378 162.609988 2.952872 -0.000030 0.000059 -0.000000 0.000003 -0.000002 9.104486 -0.042815 -1.864821 -99.289237 -10.739059 -12.625575 3.149954 0.000268 0.000277 -102.989697 -9.384011 -11.781475 2.949950 0.000248 0.000298 -105.604765 -7.022886 -9.246274 2.644317 0.000031 0.000056 -0.000000 0.000001 0.000000 8.077755 -0.486688 -3.806007 -89.418542 -10.090875 -10.365021 3.599935 0.000196 0.014980 -93.683387 -3.137720 -3.769260 2.099997 0.000215 0.007939 -98.468139 -1.053005 -1.680533 2.125494 -0.000029 0.007530 0.000002 0.000001 -0.000002 -8.207786 -6.751667 -1.599560 -0.077001 -0.000003 0.000080 -0.000002 -44.370110 0.345938 0.153719 -0.000000 -0.000000 0.000000 -44.423679 -3.043532 -0.076700 0.000000 -0.000002 -0.000006 -8.728667 10.710559 -0.000009 -0.000000 -0.000000 -0.000001 -0.000679 9.278123 0.000000 -0.000000 -0.000000 8.207792 -6.751710 -1.599556 -0.074518 -0.000003 0.000081 -0.000002 -44.370014 0.346960 0.148822 0.000002 0.000000 -0.000001 -44.423664 -3.044403 -0.074314 0.000000 -0.000002 -0.000004 -8.728671 10.710558 0.000007 -0.000000 -0.000000 0.000000 -0.000680 9.278137 -0.000000 0.000000 -0.000001 
